<?xml version="1.0" encoding="UTF-8" standalone="no"?>
<!DOCTYPE svg PUBLIC "-//W3C//DTD SVG 1.1//EN" "http://www.w3.org/Graphics/SVG/1.1/DTD/svg11.dtd">
<svg width="262px" height="64px" version="1.1" xmlns="http://www.w3.org/2000/svg" xmlns:xlink="http://www.w3.org/1999/xlink" xml:space="preserve" xmlns:serif="http://www.serif.com/" style="fill-rule:evenodd;clip-rule:evenodd;stroke-linejoin:round;stroke-miterlimit:2;">
    <g transform="matrix(1,0,0,1,-12.3334,-26.9614)">
        <path d="M106.7,57.8L86.7,57.8L86.7,42.4L82.8,42.4L82.8,77.1L86.7,77.1L86.7,61.5L106.7,61.5L106.7,77.1L110.6,77.1L110.6,42.4L106.7,42.4L106.7,57.8Z" style="fill:white;fill-rule:nonzero;"/>
        <path d="M127.7,51.1C125.8,51.1 124.1,51.3 122.7,51.7C121.2,52.1 119.8,52.6 118.4,53.3L119.5,56.4C120.7,55.8 121.9,55.4 123.1,55.1C124.3,54.8 125.7,54.6 127.2,54.6C129.6,54.6 131.5,55.2 132.8,56.4C134.1,57.6 134.8,59.3 134.8,61.6L134.8,62.4C133.6,62.1 132.5,61.8 131.3,61.6C130.1,61.4 128.7,61.3 127,61.3C125.4,61.3 123.9,61.5 122.6,61.8C121.3,62.2 120.1,62.7 119.1,63.4C118.1,64.1 117.4,65 116.8,66C116.3,67 116,68.3 116,69.6L116,69.7C116,71 116.3,72.2 116.8,73.2C117.3,74.2 118.1,75 119,75.7C119.9,76.4 120.9,76.9 122.1,77.2C123.3,77.5 124.4,77.7 125.6,77.7C127.8,77.7 129.7,77.3 131.2,76.4C132.7,75.5 133.9,74.5 134.8,73.3L134.8,77.1L138.6,77.1L138.6,61.4C138.6,58.2 137.7,55.6 135.9,53.9C134.1,52 131.4,51.1 127.7,51.1ZM135,67.7C135,68.7 134.8,69.7 134.3,70.5C133.9,71.3 133.2,72.1 132.5,72.7C131.7,73.3 130.8,73.8 129.8,74.1C128.8,74.4 127.7,74.6 126.5,74.6C125.6,74.6 124.8,74.5 124.1,74.3C123.3,74.1 122.6,73.7 122,73.3C121.4,72.9 120.9,72.3 120.6,71.7C120.3,71.1 120.1,70.3 120.1,69.6L120.1,69.5C120.1,68 120.8,66.7 122.1,65.8C123.4,64.9 125.2,64.4 127.6,64.4C129.2,64.4 130.6,64.5 131.8,64.7C133,64.9 134.1,65.2 135.1,65.4L135.1,67.7L135,67.7Z" style="fill:white;fill-rule:nonzero;"/>
        <path d="M161.2,73.2C159.9,73.9 158.5,74.3 156.8,74.3C155.4,74.3 154.2,74 153.1,73.5C152,73 151,72.3 150.1,71.4C149.3,70.5 148.6,69.4 148.1,68.2C147.6,67 147.4,65.7 147.4,64.3L147.4,64.2C147.4,62.8 147.6,61.5 148.1,60.3C148.6,59.1 149.2,58 150,57.1C150.8,56.2 151.8,55.5 152.9,55C154,54.5 155.2,54.2 156.5,54.2C158.3,54.2 159.7,54.6 160.9,55.3C162.1,56.1 163.2,57 164.2,58L166.7,55.3C166.1,54.7 165.5,54.1 164.8,53.5C164.1,52.9 163.3,52.4 162.5,52C161.7,51.6 160.8,51.3 159.8,51C158.8,50.8 157.7,50.7 156.5,50.7C154.6,50.7 152.9,51.1 151.3,51.8C149.7,52.5 148.3,53.5 147.1,54.7C145.9,55.9 145,57.3 144.3,59C143.6,60.6 143.3,62.3 143.3,64.2L143.3,64.3C143.3,66.1 143.6,67.8 144.3,69.4C145,71 145.9,72.4 147.1,73.6C148.3,74.8 149.7,75.8 151.3,76.5C152.9,77.2 154.6,77.6 156.5,77.6C158.9,77.6 160.9,77.1 162.6,76.2C164.2,75.3 165.7,74.1 167,72.6L164.6,70.3C163.6,71.5 162.4,72.5 161.2,73.2Z" style="fill:white;fill-rule:nonzero;"/>
        <path d="M194,51.4L189.2,51.4L175.4,65.9L175.4,40.9L171.6,40.9L171.6,77.1L175.4,77.1L175.4,70.4L180.6,65.1L189.8,77.1L194.4,77.1L183.2,62.5L194,51.4Z" style="fill:white;fill-rule:nonzero;"/>
        <path d="M235,42.4L221.3,74.3L207.7,42.4L204.9,42.4L220.1,77.3L222.4,77.3L237.7,42.4L235,42.4Z" style="fill:white;fill-rule:nonzero;"/>
        <path d="M267,70C265.2,71.8 263.4,73.1 261.6,74C259.7,74.9 257.6,75.4 255,75.4C252.9,75.4 251,75 249.2,74.2C247.4,73.4 245.9,72.3 244.6,70.9C243.3,69.5 242.3,67.8 241.5,65.9C240.7,64 240.4,62 240.4,59.8L240.4,59.7C240.4,57.5 240.8,55.5 241.5,53.6C242.2,51.7 243.3,50.1 244.6,48.7C245.9,47.3 247.5,46.2 249.2,45.4C251,44.6 252.9,44.2 255,44.2C256.3,44.2 257.5,44.3 258.6,44.6C259.7,44.9 260.7,45.2 261.7,45.7C262.6,46.1 263.5,46.7 264.4,47.3C265.2,47.9 266,48.6 266.8,49.3L268.6,47.4C267.7,46.6 266.8,45.8 265.8,45.1C264.9,44.4 263.8,43.8 262.8,43.3C261.7,42.8 260.6,42.4 259.3,42.2C258,41.9 256.6,41.8 255.1,41.8C252.6,41.8 250.3,42.3 248.2,43.2C246.1,44.1 244.3,45.4 242.7,47.1C241.2,48.7 240,50.6 239.1,52.8C238.2,55 237.8,57.3 237.8,59.7L237.8,59.8C237.8,62.3 238.2,64.6 239.1,66.8C240,69 241.2,70.9 242.7,72.5C244.2,74.1 246.1,75.4 248.2,76.3C250.3,77.2 252.6,77.7 255.1,77.7C256.6,77.7 258,77.6 259.3,77.3C260.6,77 261.8,76.6 262.9,76.1C264,75.6 265,74.9 266,74.2C267,73.5 267.9,72.6 268.9,71.7L267,70Z" style="fill:white;fill-rule:nonzero;"/>
        <path d="M50.6,39.2L39.8,50L29,50L15.8,63.2L28.3,63.2L28.3,74L39.1,74L39.1,86.5L52.3,73.3L52.3,62.5L63,51.8L69.2,33L50.6,39.2ZM21.5,60.8L29.9,52.4L37.4,52.4L29,60.8L21.5,60.8ZM65.5,36.8L60.9,50.5L39.8,71.6L30.7,71.6L30.7,62.5L51.8,41.4L65.5,36.8ZM41.5,80.8L41.5,73.3L49.9,64.9L49.9,72.4L41.5,80.8Z" style="fill:white;fill-rule:nonzero;"/>
        <path d="M17.8,79.8L25.9,71.7C26.1,71.5 26.1,71.2 25.9,70.9C25.7,70.7 25.4,70.7 25.1,70.9L17,79C16.8,79.2 16.8,79.5 17,79.8C17.3,80 17.6,80 17.8,79.8Z" style="fill:white;fill-rule:nonzero;"/>
        <path d="M30.6,76.4L22.5,84.5C22.3,84.7 22.3,85 22.5,85.3C22.7,85.5 23,85.5 23.3,85.3L31.4,77.2C31.6,77 31.6,76.7 31.4,76.4C31.1,76.1 30.8,76.1 30.6,76.4Z" style="fill:white;fill-rule:nonzero;"/>
        <path d="M26.6,75.7C26.4,75.5 26.1,75.5 25.8,75.7L17,84.5C16.8,84.7 16.8,85 17,85.3C17.2,85.5 17.5,85.5 17.8,85.3L26.6,76.5C26.8,76.2 26.8,75.9 26.6,75.7Z" style="fill:white;fill-rule:nonzero;"/>
        <g transform="matrix(0.7071,-0.7071,0.7071,0.7071,-17.0855,52.841)">
            <circle cx="55.2" cy="47" r="3" style="fill:white;"/>
        </g>
    </g>
</svg>
